<?xml version="1.0" encoding="utf-8"?>
<!-- Generator: Adobe Illustrator 18.0.0, SVG Export Plug-In . SVG Version: 6.00 Build 0)  -->
<!DOCTYPE svg PUBLIC "-//W3C//DTD SVG 1.1//EN" "http://www.w3.org/Graphics/SVG/1.1/DTD/svg11.dtd">
<svg version="1.1" id="Layer_1" xmlns="http://www.w3.org/2000/svg" xmlns:xlink="http://www.w3.org/1999/xlink" x="0px" y="0px"
	 viewBox="111.2 -50 737.6 300" enable-background="new 111.2 -50 737.6 300" xml:space="preserve">
<g>
	<polygon fill="#FFFFFF" points="111.2,19.9 265.9,173.4 420.6,19.9 420.6,-47.1 265.9,106.4 111.2,-47.1 111.2,-13.6 111.2,-13.6 	
		"/>
	<polygon fill="#FFFFFF" points="142.8,153.3 111.2,187.7 111.2,248.4 206.9,153.5 111.2,58.4 111.2,118.9 	"/>
	<polygon fill="#FFFFFF" points="389,153.3 420.6,118.9 420.6,58.4 325,153.5 420.6,248.4 420.6,187.7 	"/>
</g>
<path fill="#FFFFFF" d="M575,88.7v-77l-43.3,40.5l-43.3-40.5v77h-27.1V-49.5l70.3,64.1l70.5-64.1V88.7H575z"/>
<path fill="#FFFFFF" d="M681.9-45.6c24.2,0,42.9,12.1,51.4,29.7l-20.4,14c-6.3-15.3-20.2-20.2-31.8-20.2
	c-25.2,0-37.9,23.4-37.9,45.2c0,24,15.8,45.9,38.5,45.9c11.8,0,25.7-5.9,32-20.6l21.7,12.5c-8.2,20.2-33.2,31.6-54.5,31.6
	c-37.9,0-64.6-35.5-64.6-70C616.5-11,640.5-45.6,681.9-45.6z"/>
<path fill="#FFFFFF" d="M843.1,66.4v22.3h-92V-42.7h92v22.3h-66.3v31.6h55.8V32h-55.8v34.2h66.3V66.4z"/>
<g>
	<path fill="#FFFFFF" d="M461.4,247.5c0-33.1,11.6-47.1,34.1-58.2c16-7.8,36-12.9,36-32.5c0-12.5-7.8-22.5-24.6-22.5
		c-16.8,0-28.6,10.2-34.5,17L462.2,141c4-4.7,19.6-21.6,46.3-21.6c26.7,0,40.6,16.6,40.6,36.9c0,23.4-18.7,32.5-36.2,40.7
		c-24.4,11.3-31.4,19.9-31.4,36.1h67.6v14.2h-87.7V247.5z"/>
	<path fill="#FFFFFF" d="M566.2,185.3c0-30.4,20.4-64.1,53.4-64.1c35.3,0,53.4,36.5,53.4,64.1c0,30.8-20.4,63.7-53.4,64.1
		C584.5,248.6,566.2,213.7,566.2,185.3z M619.8,234.8c25.3,0,37.2-28.5,37.2-49.5c0-23.1-13.5-49.5-37.2-49.5
		c-25.3,0-37.2,28.7-37.2,49.5C583.4,208.4,595.4,234.8,619.8,234.8z"/>
	<path fill="#FFFFFF" d="M731,247.5h-16.2V137.8c-4,5.5-18.9,15.3-28.6,15.3v-14.6c12.8,0,28.2-16.4,28.6-17.2H731V247.5z"/>
	<path fill="#FFFFFF" d="M848.8,207c0,25.1-19.6,42.2-45,42.2c-18.1,0-33.5-9.3-41-23.6l9.9-8.5c6.7,11,18.5,18.2,31.4,18.2
		c16.4,0,28.6-11.3,28.6-27.8c0-15.9-12-27-27.4-27c-10.1,0-19.6,4.7-25.3,13h-14.3c1.1-5.1,14.3-72.2,14.3-72.2h61.7v14.4h-50.1
		l-7.6,40.3c5.1-5.7,13.5-8.9,23.2-8.9C830.7,167,848.8,183.4,848.8,207z"/>
</g>
</svg>
